<svg id="Layer_1" data-name="Layer 1" xmlns="http://www.w3.org/2000/svg" viewBox="0 0 924.21 762.37"><defs><style>.cls-1{fill:#fff;}.cls-2{fill:#f5b827;}.cls-3{fill:#110a00;}.cls-4{fill:#ed1b2e;}</style></defs><path class="cls-1" d="M279.73,881.09a43.39,43.39,0,0,1-41-22.44H37.89V536.36H268.67a294.47,294.47,0,0,1-23.88-214.15c32.39-119.84,137.35-203.4,254.89-203.4a252,252,0,0,1,72.73,10.83A270.52,270.52,0,0,1,731.57,264,295.8,295.8,0,0,1,754.33,476a301,301,0,0,1-23.87,60.32H962.11V859.44H378.64L366,862.23l-25.94,6.28-36.45,9.23h-.79A86.67,86.67,0,0,1,279.73,881.09Z" transform="translate(-37.89 -118.81)"/><path class="cls-2" d="M674.91,550.2a242.5,242.5,0,0,0,43-85.94,264,264,0,0,0,8.76-66.05A254.65,254.65,0,0,0,698.78,282.5a229.69,229.69,0,0,0-134.48-113c-119.37-36.6-243.51,36.61-277.73,163.14a264.4,264.4,0,0,0-8.75,66.05,250.52,250.52,0,0,0,51.72,152H674.91" transform="translate(-37.89 -118.81)"/><path class="cls-1" d="M714.7,321.82c0-.8,0-.8-.8-1.6l-107.42-.79c0-3.18-.8-7.16-.8-10.35L697.19,282c-.79-.8-.79-1.59-1.59-2.39l-92.31,18.3a77.62,77.62,0,0,0-4-12.73l73.22-40.58c-.8-.8-.8-1.6-1.6-1.6l-74.8,31.83a43,43,0,0,0-5.57-10.34L646.26,216c-.79-.8-1.59-1.59-2.38-1.59l-59.69,41.38a54.86,54.86,0,0,0-8.75-10.35l39-52.52c-.79-.8-1.59-.8-2.39-1.59l-43.76,46.95a136,136,0,0,0-11.14-8.75l25-53.32c-.79-.8-2.38-.8-3.18-1.59L548.7,223.94c-4-1.6-7.16-3.19-11.14-4.78l12.73-53.32c-1.59,0-2.38-.79-4-.79L527.21,216a46.21,46.21,0,0,0-15.11-2.39l.79-53.32h-4l-7.16,52.52c-4,0-8.75.8-12.73.8l-10.35-52.52h-4l3.19,54.11A50.71,50.71,0,0,0,463.55,220l-21.48-51.73c-1.59,0-2.39.8-4,.8L454,224.73a72.15,72.15,0,0,0-10.34,6.37l-35-50.14c-.79.8-2.38.8-3.18,1.59l29.45,55.71a45.66,45.66,0,0,0-8.76,8.75l-49.34-46.95a4.11,4.11,0,0,1-3.18,1.59l44.56,54.12c-2.38,3.18-4,6.36-6.36,9.55l-66.05-40.59-2.39,2.07,62.87,48.54c-1.6,3.19-2.39,6.37-4,9.55l-82-30.24c-.79.8-.79,1.59-1.59,2.39l80.37,39.31c-.79,3.18-1.59,7.16-2.38,11.14l-99.47-12.73c0,.79-.8,1.59-.8,2.39l102.65,21.48v8.76l-113,8.75v1.59l114.59,1.59c.79,3.19.79,6.37,1.59,9.55L277.82,386l126.53-26.27,2.39,7.17L290.55,430.52,412.31,378c1.59,2.39,3.18,5.57,4.77,8L315.22,474.29l109-78a39.76,39.76,0,0,0,5.57,6.37l-80.37,105,89.44-96.77c2.39,1.59,4.78,4,7.17,5.57L388,536.68l67.64-114.6c2.38,1.6,5.57,2.39,7.95,4L434.11,550.2,474.69,430c2.39.8,5.57,1.59,8.76,2.39l-4,117.77h.79L496.18,434h10.34L528,550.2h.8L518.46,432.43c2.39-.8,5.57-.8,8-1.59l47.75,117.77-35-121.75,9.55-4.78,70.83,105.05L558.25,415.72l8.75-6.37,89.13,85.94-80.69-93.42a31.28,31.28,0,0,0,6.37-8l106.63,66-100.27-75.6A65.16,65.16,0,0,0,593.74,374L709.92,414.6l-111.4-50.93c.79-3.18,2.38-6.36,3.18-9.55L724.25,370,606,343.3c.79-4,.79-8,1.59-11.93L715,321.82" transform="translate(-37.89 -118.81)"/><path class="cls-2" d="M615.23,435.61,454.8,472.22a12.1,12.1,0,0,1-15.92-8,13.62,13.62,0,0,1,8-16.71l164.73-62.07L614,285.21,505.73,313.06A22.05,22.05,0,0,0,515.28,290a21.25,21.25,0,1,0-41.38,9.55A20.29,20.29,0,0,0,490.61,317l-52.84,13.21,13.53-15.91L407.53,265l-18.3,21.48,43,45.36-41.06,10.67-10.35-19.1-39,8.75,9.55,17.51,15.12-3.19L420.58,446a31.82,31.82,0,0,0-3.18,33.42c4.77,11.14,17.51,20.69,39.79,15.12l162-36.92-4-22.29" transform="translate(-37.89 -118.81)"/><path class="cls-2" d="M565.09,296.35A22,22,0,0,0,581,269.29a21.72,21.72,0,0,0-25.46-17.5,22,22,0,0,0-15.92,27,22.51,22.51,0,0,0,25.46,17.51" transform="translate(-37.89 -118.81)"/><polyline class="cls-2" points="460.36 90 467.52 141.73 483.43 144.91 502.53 96.37 460.36 90"/><path class="cls-2" d="M459.26,273.27a23.86,23.86,0,0,0,17.5-27,21.25,21.25,0,1,0-41.38,9.55,20.22,20.22,0,0,0,23.88,17.5" transform="translate(-37.89 -118.81)"/><path class="cls-3" d="M501.43,309.88a23.88,23.88,0,0,0,17.51-27.06,21.25,21.25,0,1,0-41.38,9.55,20.61,20.61,0,0,0,23.87,17.51" transform="translate(-37.89 -118.81)"/><path class="cls-3" d="M463.24,266.59a23.88,23.88,0,0,0,17.5-27.06,21.25,21.25,0,1,0-41.38,9.55,20.2,20.2,0,0,0,23.88,17.51" transform="translate(-37.89 -118.81)"/><path class="cls-3" d="M569.07,289.19A22.6,22.6,0,0,0,585,262.13a21.72,21.72,0,0,0-25.47-17.5,23.07,23.07,0,0,0-16.71,27.05,22.44,22.44,0,0,0,26.26,17.51" transform="translate(-37.89 -118.81)"/><polyline class="cls-3" points="464.33 82.05 471.5 133.77 488.21 136.95 507.31 88.41 464.33 82.05"/><polyline class="cls-3" points="373.62 139.34 417.38 188.68 400.67 208.57 355.31 160.83 373.62 139.34"/><path class="cls-3" d="M604.09,453.91,624,449.14l-4-16.71-164.72,39A17,17,0,0,1,437,460.28a13.62,13.62,0,0,1,8-16.71L616,378V294L402,345.69l-16.71-30.24-39,8.75,9.55,17.51,15.11-3.18L425,438a31.84,31.84,0,0,0-3.19,33.42,30.4,30.4,0,0,0,32.63,16.71,23.27,23.27,0,0,0-5.57,20.69,20.61,20.61,0,0,0,23.87,17.51,23.87,23.87,0,0,0,17.51-27.06A20.91,20.91,0,0,0,476,483.36L583.4,458.69a23.86,23.86,0,0,0-7.16,21.49,21.7,21.7,0,0,0,25.46,17.5,22.6,22.6,0,0,0,15.92-27.05,19.84,19.84,0,0,0-13.53-16.72" transform="translate(-37.89 -118.81)"/><path class="cls-4" d="M329.54,550.2a250.48,250.48,0,0,1-51.72-152,269.24,269.24,0,0,1,8.75-66C320.79,205.63,445.73,132.42,564.3,169A233.79,233.79,0,0,1,698.78,282.5a244.64,244.64,0,0,1,27.86,115.39,264,264,0,0,1-8.76,66.05,242.63,242.63,0,0,1-43,85.95Zm375.61,0a294.06,294.06,0,0,0,36.61-80.37,284.49,284.49,0,0,0,9.55-73.21,281.2,281.2,0,0,0-31-127.33A254.61,254.61,0,0,0,570.66,142.77C438.57,103,300.9,184.15,262.7,324.2a275.9,275.9,0,0,0,36.6,226H56.91V840.66H253.47a18.72,18.72,0,0,0,1.59,6.37c9.55,22.28,38.2,15.91,48.54,12.73h.8l35-8.76,26.26-6.36L380,841.46H949V550.2Z" transform="translate(-37.89 -118.81)"/><path class="cls-1" d="M836.77,703.79a52.36,52.36,0,0,1,16.71-22.28,29.19,29.19,0,0,1,15.92-7.17c9.55-.79,7.16,7.17,3.18,12.74A45.45,45.45,0,0,1,836.77,703.79ZM650.24,615.14c7.16,0,62.07,8,48.54,24.67-15.91,20.69-42.17,27.85-67.64,32.62-8.75,1.6-16.71,2.39-25.46,4h-.8c4.78-11.93,10.35-23.07,15.92-34.21a168.17,168.17,0,0,0,12.73-27.06,58.48,58.48,0,0,1,16.71.32Zm187,99.47a76.73,76.73,0,0,0,21.49-3.18,61.12,61.12,0,0,0,33.42-22.29,20.22,20.22,0,0,0-6.37-28.64,37.88,37.88,0,0,0-33.42,0,59.88,59.88,0,0,0-28.65,23.87c-6.36,10.35-11.94,30.24,0,43.77,19.9,22.28,57.3,13.53,70-4,4-5.57-4-10.35-8.75-7.16a40.44,40.44,0,0,1-42.18,3.18,7.93,7.93,0,0,1-5.57-5.25Zm-17.51,22.28c-30.24.8-19.1-48.54-15.91-64.46,2.38-11.14,6.36-22.28,9.55-32.62a248.39,248.39,0,0,1,35-7.17,49,49,0,0,1,21.49,0,17.78,17.78,0,0,0,14.32-.79,9.15,9.15,0,0,0,3.18-11.14A22.93,22.93,0,0,0,866.69,612a185.33,185.33,0,0,0-36.6,4l-8.76,2.39c.8-.79.8-1.59,1.59-2.39,3.19-7.16,8.76-15.12,7.17-23.87-.8-6.36-8.76-5.57-11.14-2.39a145.2,145.2,0,0,0-20.69,35.81H797c-3.18.8-35.81,12.74-36.6,8.76a4.14,4.14,0,0,0-6.37-2.39c-7.16,5.57-1.59,15.92,7.16,19.1a40.38,40.38,0,0,0,27.06-2.39v.8a257.19,257.19,0,0,1-32.63,39c-4.77,4.77-9.55,8.75-15.12,13.53a69.45,69.45,0,0,1-8,6.36.8.8,0,0,0-.8.8c-4-10.35,1.59-27.85,6.37-36.61-.8,0,2.19-3,1.59-1.59,1.59-2.38,0-4.77-1.59-6.36a6.23,6.23,0,0,0-6.37-1.6c-15.12,8-23.08,30.24-20.69,50.14a22,22,0,0,0,20.69,19.1A40.61,40.61,0,0,0,758.79,717a135.38,135.38,0,0,0,17.5-19.1,61.16,61.16,0,0,0,3.19,37.4c8.75,19.9,32.62,19.1,41.38,15.12,6-4.46,6-14.32-1.12-13.21Zm-62.07,46.16c-12.73-11.14-31-11.94-44.56-15.12a461.6,461.6,0,0,0-65.26-5.57A835.71,835.71,0,0,0,513.37,773.5c-17.51,3.18-35.81,6.36-53.32,10.34,4-16.71,8-34.22,11.94-48.54,2.39-8,5.57-15.92,8-23.87a51.26,51.26,0,0,1,7.95-10.35,54.34,54.34,0,0,1,21.49-15.91c15.91-5.57,13.53,15.12,10.35,23.07a64.74,64.74,0,0,1-41.38,37.41c-7.17,2.38-6.37,12.73,5.57,11.93a64.39,64.39,0,0,0,56.5-42.17,42.84,42.84,0,0,0-.8-34.22,25.71,25.71,0,0,0-31-13.53,65.1,65.1,0,0,0-22.28,11.14,7.31,7.31,0,0,0-7.95-1.59,197.35,197.35,0,0,1-29.45,11.14,2.94,2.94,0,0,0-.8-2.39c-3.18-12.73-15.91-21.48-23.87-14.32a17.46,17.46,0,0,0-2.39,4A36.64,36.64,0,0,0,405.14,682a72.42,72.42,0,0,0-23.87,46.16c-1.59,16.71,8,31,23.87,31,19.9,0,31.83-13.52,39.79-31a62.22,62.22,0,0,0,5.57-30.24A112.81,112.81,0,0,0,468,692.33c-.8,1.59-1.59,4-2.39,5.57a187.12,187.12,0,0,0-9.55,22.28,451.08,451.08,0,0,0-22.28,70c-15.91,4-31.83,7.16-47,11.14-20.69,4.77-41.38,10.35-62.07,15.91a221.14,221.14,0,0,1-31,8,33,33,0,0,1-10.34.8c-1.59,0-3.18-.8-3.18-1.59s0-3.18-2.39-3.18a11,11,0,0,0-10.35,5.57,18.77,18.77,0,0,0-.79,9.54c7.16,16.71,31,10.35,40.58,8C328,839.55,347.85,834,368.54,829.2l58.09-14.32v.79c-4,12.74,11.14,17.51,19.1,12.74a23.89,23.89,0,0,0,7.16-10.35,72.34,72.34,0,0,0,4-10.34c11.94-3.19,23.87-6.37,35.81-8.76a786.1,786.1,0,0,1,129.71-19.89,384,384,0,0,1,67.64.79c11.14,1.6,21.49,3.19,32.63,5.57a38.83,38.83,0,0,1,21.48,8.76c7.17,9.87,22.28-2.87,13.53-10.83ZM264.29,728.14c-3.18-22.28-29.44-28.65-44.56-30.24-11.94-.8-24.67-.8-36.61-.8-3.18,0-35.81.8-33.42-8.75a68.38,68.38,0,0,1,23.08-28.65A151,151,0,0,1,207,639a103.75,103.75,0,0,1,49.33-10.34c6.37,0,16.71,0,19.1,9.55a30.47,30.47,0,0,1-6.36,23.87c-2.39,3.18.79,10.34,6.36,8,13.53-6.37,27.85-34.22,10.35-50.93s-49.34-11.94-66-8A175.78,175.78,0,0,0,148.9,647c-14.32,11.94-41.38,41.38-14.32,65.25a56.51,56.51,0,0,0,35.81,10.35h39c8,0,19.9-.8,27.06,8,0,0,.79,2.38.79,1.59.8,4,.8,1.59,0,5.57-1.59,8-11.93,18.3-19.09,24.67a154.18,154.18,0,0,1-39,24.67,199.94,199.94,0,0,1-23.07,8.75,68.51,68.51,0,0,1-24.67,2.39,25.1,25.1,0,0,1-18.31-8.76c-.79-1.59-1.59-2.38-3.18-2.38-10.34,0-6.37,15.12,2.39,19.09,18.3,14.33,47.74,5.58,62.07,1.6a174.28,174.28,0,0,0,78.78-47A46.53,46.53,0,0,0,264.29,728.14Zm27.06-45a61.21,61.21,0,0,1-13.53,5.57c-3.18.79-4.78,5.57,0,6.36a35.23,35.23,0,0,0,8.75.8,55.39,55.39,0,0,1-2.38,6.37c-2.39,7.95-5.57,15.91-7.17,23.87a72.52,72.52,0,0,0-3.18,26.26,11.06,11.06,0,0,0,8.75,8.75c13.53,3.19,19.1-13.53,25.47-21.48,11.94-14.33,33.42-30.24,43-31.83a86.74,86.74,0,0,0-3.18,20.69c-.8,18.3,8.75,35.81,26.26,31,10.34-3.18,8-10.34,0-11.14-13.53-1.59-.8-39.79,0-48.54a14.57,14.57,0,0,0-8.76-14.33,24.31,24.31,0,0,0-15.12.8,144.39,144.39,0,0,0-25.46,11.94,103.68,103.68,0,0,0-19.1,13.53,71.1,71.1,0,0,0-8,7.16,18.49,18.49,0,0,0,1.59-6.37c2.39-8,4.78-16.71,8-24.67a170.89,170.89,0,0,0,36.61-26.26,119.47,119.47,0,0,0,28.65-34.22c4.77-7.95,12.73-31-3.19-36.6-12.73-4.78-26.26,9.55-33.42,16.71a203.12,203.12,0,0,0-30.24,42.17C300.9,660,296.12,672,291.35,683.1Zm358.1-88.33a144,144,0,0,0-55.71,9.55c-8.75,4-30.24,13.52-27.85,28.64a6.13,6.13,0,0,0,11.94,0A50.8,50.8,0,0,1,589,626.6a78.19,78.19,0,0,1,19.1-7.16c2.38-.8,4.77-.8,6.36-1.6-1.59,2.39-2.39,4-4,6.37a300.88,300.88,0,0,0-22.28,38.2c-1.59,4-4,8-5.57,12.73a51.69,51.69,0,0,0-24.67,6.37,9.31,9.31,0,0,0,.32,14.8,21.73,21.73,0,0,0,14.33,4A238.07,238.07,0,0,0,563,748.83c-.8,10.34,12.73,9.55,15.12,4A419.56,419.56,0,0,0,598,697.1h7.16A158,158,0,0,1,641,709a156.19,156.19,0,0,1,32.63,19.89A214.06,214.06,0,0,0,705.47,752a8.91,8.91,0,0,0,11.14-13.53C707.86,725.75,691.14,717,680,709a295.86,295.86,0,0,0-31-16.71,180.83,180.83,0,0,0,45.36-15.92c11.94-6.36,32.63-20.69,31.83-39C724.25,599.54,669.66,595.56,649.45,594.77Zm86.74,46.15c0,.8,1.59.8,1.59,0,4-4,7.16-8.75,11.14-12.73a39.62,39.62,0,0,1,6.36-5.57c1.6-.8,2.39-1.59,3.19-1.59a3,3,0,0,0,2.39-.8,8.59,8.59,0,0,0,4-13.53,9.72,9.72,0,0,0-15.12,0,66.11,66.11,0,0,0-7.16,8.76,34.84,34.84,0,0,0-3.18,5.57,28.82,28.82,0,0,0-3.18,19.57ZM433.79,682.3c-1.59-3.18-2.39-3.18-2.39.8a7.31,7.31,0,0,0,3.19,4.77v-.79A12,12,0,0,0,433.79,682.3ZM328,657.63c-3.18,2.39-6.36,5.57-9.55,8,10.35-21.49,22.29-43,40.59-55.7,2.39-1.6,5.57-2.39,5.57-1.6a24,24,0,0,1-2.39,7.17,109.47,109.47,0,0,1-10.34,15.91A106.68,106.68,0,0,1,328,657.63ZM433.79,699a67,67,0,0,1-4.77,19.1c-3.19,6.37-10.35,19.9-18.31,21.49s-8.75-2.39-7.95-10.35a58.9,58.9,0,0,1,6.36-23.08,68.76,68.76,0,0,1,8-12.73c.8-.79,3.18-4.77,4.77-6.36A17.91,17.91,0,0,0,433.79,699Z" transform="translate(-37.89 -118.81)"/><path class="cls-1" d="M903.3,762.67c3.18,0,6.37,0,6.37-4s-3.19-4-5.57-4h-4.78v7.95Zm-4.78,15.13h-4V751.53h9.56c5.57,0,8.75,2.39,8.75,7.17a7,7,0,0,1-6.37,7.16l7.16,11.94h-4l-6.37-11.15h-4V777.8Zm4.78,5.56a19.17,19.17,0,1,0-17.51-19.09,18.07,18.07,0,0,0,17.51,19.09Zm-21.49-19.09a22.84,22.84,0,0,1,21.49-23.08,21.8,21.8,0,0,1,21.49,23.08,22.29,22.29,0,0,1-21.49,23.07,21.8,21.8,0,0,1-21.49-23.07Z" transform="translate(-37.89 -118.81)"/></svg>